<svg id="svg" xmlns="http://www.w3.org/2000/svg" xmlns:xlink="http://www.w3.org/1999/xlink" width="400" height="400" viewBox="0, 0, 400,400"><g id="svgg"><path id="path0" d="M0.000 200.000 L 0.000 400.000 200.000 400.000 L 400.000 400.000 400.000 200.000 L 400.000 0.000 200.000 0.000 L 0.000 0.000 0.000 200.000 M161.328 145.714 C 171.760 151.527,164.313 167.028,153.113 162.813 C 144.294 159.494,145.214 146.810,154.400 145.055 C 155.961 144.757,160.361 145.175,161.328 145.714 M248.918 145.646 C 258.269 150.466,254.354 164.475,243.930 163.498 C 234.016 162.569,231.489 149.823,240.400 145.696 C 242.466 144.740,247.107 144.712,248.918 145.646 M191.120 145.680 C 191.476 146.036,191.600 149.977,191.600 160.935 L 191.600 175.709 193.547 173.888 C 201.306 166.631,214.824 167.136,222.615 174.975 C 225.184 177.558,228.400 182.864,228.400 184.516 C 228.400 184.804,228.549 185.211,228.732 185.420 C 230.071 186.953,230.680 199.869,229.628 204.400 C 228.651 208.606,226.353 214.378,225.515 214.733 C 225.342 214.807,225.197 215.077,225.194 215.333 C 225.167 217.610,215.082 225.200,212.084 225.200 C 211.686 225.200,211.162 225.398,210.920 225.640 C 210.653 225.907,208.623 226.088,205.740 226.102 C 198.812 226.135,194.303 224.337,190.699 220.105 C 188.969 218.075,188.876 218.166,188.470 222.266 L 188.200 225.000 181.119 225.109 C 172.749 225.238,173.194 225.530,173.634 220.200 C 173.797 218.220,173.946 200.655,173.965 181.167 C 173.984 161.678,174.120 145.613,174.267 145.467 C 174.773 144.961,190.601 145.161,191.120 145.680 M279.200 160.723 L 279.400 176.045 280.800 174.584 C 287.812 167.268,300.603 166.793,309.081 173.534 C 320.071 182.273,321.396 205.384,311.601 217.483 C 303.052 228.043,287.133 229.293,278.733 220.062 L 276.902 218.050 276.712 221.011 C 276.432 225.369,276.691 225.238,268.643 225.109 L 261.800 225.000 261.698 185.643 C 261.623 156.561,261.716 146.143,262.054 145.735 C 262.421 145.293,264.139 145.205,270.756 145.292 L 279.000 145.400 279.200 160.723 M53.680 169.252 C 57.133 169.989,59.767 171.376,62.257 173.772 L 64.600 176.026 64.714 173.513 C 64.795 171.742,65.024 170.852,65.491 170.500 C 66.225 169.945,79.430 169.760,79.706 170.300 C 80.375 171.606,79.239 226.034,78.486 228.813 C 76.974 234.390,73.504 240.266,70.770 241.882 C 70.126 242.262,69.600 242.698,69.600 242.852 C 69.600 243.479,62.769 246.423,59.600 247.161 C 50.983 249.168,38.880 248.288,31.500 245.118 C 29.490 244.254,29.177 243.523,29.958 241.519 C 30.155 241.013,30.515 239.835,30.758 238.900 C 31.546 235.868,31.956 234.220,32.177 233.200 C 32.630 231.106,32.965 230.956,35.074 231.910 C 46.566 237.107,57.784 235.547,60.917 228.316 C 61.231 227.592,61.693 226.497,61.944 225.881 C 62.195 225.266,62.400 223.222,62.400 221.339 L 62.400 217.915 61.300 219.079 C 57.107 223.515,48.246 225.800,42.428 223.945 C 36.450 222.038,32.626 219.309,29.657 214.830 C 26.233 209.665,24.800 204.603,24.800 197.677 C 24.800 192.237,25.726 187.907,27.872 183.318 C 32.718 172.953,43.494 167.080,53.680 169.252 M120.065 169.364 C 128.922 171.064,136.381 176.540,139.457 183.600 C 140.547 186.100,140.772 186.687,141.147 188.000 C 145.181 202.109,139.047 218.045,127.660 223.041 C 122.065 225.496,119.669 226.000,113.600 226.000 C 100.385 226.000,90.847 219.711,87.026 208.476 C 79.285 185.718,96.864 164.909,120.065 169.364 M359.306 169.997 C 367.647 172.601,375.243 180.093,376.949 187.400 C 378.851 195.547,378.887 199.376,377.122 206.200 C 376.449 208.806,374.486 213.273,373.900 213.533 C 373.735 213.607,373.600 213.857,373.600 214.090 C 373.600 216.344,363.138 224.400,360.212 224.400 C 359.901 224.400,359.548 224.560,359.427 224.756 C 358.366 226.473,343.469 226.483,339.300 224.770 C 338.805 224.566,337.905 224.196,337.300 223.947 C 322.419 217.825,316.443 198.899,324.411 183.129 C 330.139 171.791,345.971 165.833,359.306 169.997 M165.000 197.600 L 165.000 225.000 156.600 225.000 L 148.200 225.000 148.096 198.000 C 148.039 183.150,148.080 170.771,148.187 170.492 C 148.337 170.099,150.261 170.008,156.691 170.092 L 165.000 170.200 165.000 197.600 M253.000 197.600 L 253.000 225.000 244.801 225.109 C 237.445 225.206,236.550 225.147,236.101 224.532 C 235.382 223.549,235.369 171.191,236.088 170.472 C 236.447 170.113,238.737 170.013,244.788 170.092 L 253.000 170.200 253.000 197.600 M111.200 181.797 C 105.982 183.469,103.200 188.964,103.200 197.600 C 103.200 207.871,106.900 213.379,113.800 213.379 C 120.668 213.379,124.182 208.032,124.170 197.600 C 124.158 186.018,118.717 179.389,111.200 181.797 M345.800 182.423 C 337.209 186.671,336.513 206.436,344.753 212.106 C 349.186 215.155,358.400 211.845,358.400 207.203 C 358.400 206.975,358.558 206.477,358.751 206.095 C 359.691 204.234,360.000 202.132,360.000 197.600 C 360.000 192.515,359.630 190.578,358.000 187.126 C 355.765 182.395,350.198 180.248,345.800 182.423 M49.845 182.801 C 37.938 187.451,40.629 211.600,53.053 211.600 C 59.877 211.600,62.544 207.109,62.328 195.986 C 62.108 184.649,57.520 179.804,49.845 182.801 M198.121 183.058 C 196.099 183.774,193.727 186.010,192.500 188.355 C 191.349 190.556,191.128 203.574,192.199 206.136 C 194.058 210.586,200.813 213.876,204.305 212.034 C 204.687 211.832,205.636 211.392,206.414 211.055 C 208.722 210.057,210.449 207.770,211.780 203.948 C 212.938 200.622,212.460 190.727,211.074 189.341 C 210.923 189.190,210.800 188.737,210.800 188.333 C 210.800 187.930,210.620 187.600,210.400 187.600 C 210.180 187.600,210.000 187.385,210.000 187.123 C 210.000 184.207,202.308 181.575,198.121 183.058 M286.185 183.037 C 281.245 184.791,279.454 188.287,279.262 196.551 C 279.077 204.548,279.968 207.544,283.326 210.224 C 285.662 212.088,291.432 213.243,292.200 212.000 C 292.336 211.780,292.752 211.596,293.124 211.590 C 296.146 211.546,299.653 206.129,300.328 200.465 C 301.768 188.368,294.923 179.934,286.185 183.037 M298.567 254.643 C 299.059 254.832,299.200 255.497,299.200 257.632 L 299.200 260.378 293.500 260.489 L 287.800 260.600 287.695 275.700 L 287.590 290.800 284.395 290.800 L 281.200 290.800 281.200 276.080 C 281.200 265.164,281.076 261.236,280.720 260.880 C 280.395 260.555,278.524 260.400,274.920 260.400 L 269.600 260.400 269.600 257.633 C 269.600 255.794,269.768 254.799,270.100 254.665 C 270.821 254.374,297.812 254.353,298.567 254.643 M357.910 260.700 C 358.028 267.180,358.230 267.735,359.830 265.967 C 362.782 262.705,373.600 263.974,373.600 267.583 C 373.600 267.812,373.752 268.000,373.937 268.000 C 374.853 268.000,375.200 271.564,375.200 280.963 L 375.200 290.834 372.100 290.717 L 369.000 290.600 368.800 281.181 C 368.576 270.634,368.434 270.069,365.793 269.198 C 363.677 268.499,359.611 270.012,359.603 271.500 C 359.601 271.775,359.461 272.000,359.291 272.000 C 358.523 272.000,358.000 276.662,358.000 283.512 L 358.000 290.800 355.000 290.800 L 352.000 290.800 352.000 272.867 C 352.000 263.003,352.127 254.806,352.283 254.650 C 352.439 254.495,353.744 254.420,355.183 254.484 L 357.800 254.600 357.910 260.700 M311.800 264.400 C 311.936 264.620,312.319 264.800,312.652 264.800 C 316.096 264.800,320.594 271.949,320.327 277.000 L 320.200 279.400 311.000 279.600 L 301.800 279.800 301.927 281.000 C 302.518 286.596,310.448 288.464,313.469 283.719 C 315.228 280.957,320.443 281.288,319.686 284.114 C 319.226 285.829,316.394 289.082,314.629 289.923 C 311.517 291.405,310.747 291.600,308.000 291.600 C 305.398 291.600,304.782 291.458,301.800 290.169 C 299.401 289.132,296.000 284.701,296.000 282.611 C 296.000 282.081,295.820 281.536,295.600 281.400 C 293.591 280.158,296.173 270.639,299.400 267.391 C 302.251 264.522,310.627 262.502,311.800 264.400 M341.288 264.971 C 344.551 266.472,347.036 269.466,347.289 272.200 L 347.400 273.400 344.400 273.514 L 341.400 273.627 340.825 272.314 C 338.798 267.686,332.522 267.749,330.132 272.421 C 329.032 274.572,328.826 280.210,329.765 282.451 C 331.975 287.725,338.334 287.738,340.777 282.472 L 341.753 280.367 344.373 280.483 C 347.379 280.617,347.645 280.982,346.771 283.766 C 345.725 287.099,343.007 289.875,339.600 291.089 C 337.926 291.685,332.151 291.768,331.800 291.200 C 331.664 290.980,331.113 290.800,330.576 290.800 C 330.039 290.800,329.600 290.620,329.600 290.400 C 329.600 290.180,329.334 290.000,329.009 290.000 C 328.141 290.000,324.000 285.713,324.000 284.815 C 324.000 284.393,323.850 283.955,323.668 283.842 C 322.018 282.822,322.310 274.562,324.130 270.800 C 327.037 264.787,335.004 262.081,341.288 264.971 M306.800 269.080 C 303.849 270.147,302.669 271.268,301.985 273.651 L 301.656 274.800 307.828 274.800 C 314.787 274.800,314.773 274.808,312.976 271.962 C 311.591 269.767,308.669 268.404,306.800 269.080 " stroke="none" fill="#fbfbfb" fill-rule="evenodd"></path><path id="path1" d="M151.963 146.531 C 143.904 150.785,147.194 162.597,156.438 162.599 C 163.980 162.601,168.306 155.996,164.813 149.814 C 162.527 145.768,156.382 144.198,151.963 146.531 M239.539 146.752 C 236.262 148.831,234.676 152.570,235.607 156.025 C 238.325 166.120,253.848 164.562,253.782 154.200 C 253.737 147.151,245.611 142.902,239.539 146.752 M174.308 184.892 C 174.248 206.291,174.264 224.025,174.343 224.300 C 174.542 224.996,186.825 225.015,187.520 224.320 C 187.784 224.056,188.013 223.111,188.030 222.220 C 188.046 221.329,188.181 219.790,188.330 218.800 L 188.600 217.000 189.400 217.819 C 189.840 218.270,190.740 219.281,191.400 220.066 C 196.451 226.073,207.241 227.430,215.886 223.145 C 232.768 214.779,234.828 183.487,219.200 172.818 C 211.339 167.451,199.067 168.508,192.972 175.076 C 190.780 177.438,190.818 177.671,190.705 161.300 L 190.600 146.200 182.508 146.092 L 174.415 145.983 174.308 184.892 M262.603 146.500 C 262.508 146.775,262.379 164.505,262.315 185.900 L 262.200 224.800 268.859 224.800 L 275.518 224.800 275.959 222.267 C 276.202 220.874,276.400 219.265,276.400 218.691 C 276.400 216.986,276.976 217.121,278.559 219.198 C 289.036 232.936,312.916 224.308,316.748 205.400 C 318.502 196.742,317.795 188.582,314.725 182.080 C 313.176 178.799,312.925 178.408,310.630 175.710 C 303.636 167.489,288.193 167.260,280.772 175.268 C 278.751 177.449,278.800 177.803,278.800 161.133 L 278.800 146.000 270.787 146.000 C 264.736 146.000,262.733 146.122,262.603 146.500 M346.400 169.623 C 334.127 170.813,325.885 177.701,322.497 189.600 C 321.612 192.709,321.628 202.931,322.523 206.138 C 324.559 213.428,329.167 219.318,335.195 222.333 C 338.030 223.751,339.066 224.125,343.046 225.168 C 345.175 225.727,353.625 225.727,355.754 225.168 C 359.626 224.153,360.697 223.812,362.400 223.054 C 382.634 214.044,383.146 181.469,363.200 172.126 C 358.125 169.748,352.992 168.984,346.400 169.623 M148.675 170.658 C 148.285 171.049,148.344 223.692,148.735 224.309 C 148.982 224.698,150.880 224.792,156.829 224.709 L 164.600 224.600 164.600 197.600 L 164.600 170.600 156.775 170.492 C 152.471 170.432,148.826 170.507,148.675 170.658 M236.584 170.900 C 236.479 171.175,236.439 183.370,236.496 198.000 L 236.600 224.600 243.800 224.714 C 247.760 224.776,251.405 224.728,251.900 224.606 L 252.800 224.385 252.800 197.392 L 252.800 170.400 244.787 170.400 C 238.746 170.400,236.728 170.523,236.584 170.900 M354.477 182.363 C 360.154 185.963,362.558 198.232,359.226 206.600 C 356.625 213.129,350.861 215.746,345.244 212.947 C 336.128 208.404,336.098 187.174,345.200 182.046 C 347.543 180.725,352.143 180.883,354.477 182.363 M205.672 182.745 C 215.454 186.938,215.759 207.174,206.111 211.827 C 200.966 214.308,194.176 211.778,191.695 206.455 C 190.511 203.914,190.693 190.818,191.948 188.292 C 194.605 182.943,200.539 180.545,205.672 182.745 M293.081 182.487 C 304.025 187.254,303.854 208.541,292.840 212.332 C 287.415 214.200,281.042 210.856,279.300 205.228 C 278.438 202.444,278.633 191.675,279.592 189.115 C 281.667 183.573,288.202 180.362,293.081 182.487 M281.381 275.800 C 281.381 283.940,281.434 287.213,281.500 283.074 C 281.565 278.934,281.565 272.274,281.499 268.274 C 281.434 264.273,281.381 267.660,281.381 275.800 " stroke="none" fill="#365d9d" fill-rule="evenodd"></path><path id="path2" d="M45.800 169.460 C 37.288 170.842,29.350 178.010,26.819 186.600 C 22.488 201.300,26.720 215.522,37.200 221.480 C 44.868 225.839,55.566 224.777,60.860 219.131 C 64.409 215.347,63.120 226.891,59.539 230.970 C 56.331 234.624,48.975 236.319,43.046 234.770 C 39.390 233.814,35.728 232.593,34.488 231.916 C 33.351 231.296,33.150 231.280,32.988 231.800 C 32.884 232.130,32.694 232.715,32.564 233.100 C 31.991 234.801,30.000 242.887,30.000 243.512 C 30.000 244.438,33.875 245.888,40.000 247.256 C 43.036 247.934,55.619 247.944,58.200 247.271 C 62.713 246.094,63.531 245.800,66.487 244.295 C 74.182 240.379,78.578 232.357,79.012 221.441 C 79.110 218.998,79.279 206.511,79.388 193.691 L 79.587 170.382 72.494 170.491 L 65.400 170.600 65.049 173.400 C 64.857 174.940,64.643 176.264,64.574 176.343 C 64.505 176.421,63.492 175.506,62.324 174.310 C 58.435 170.328,52.032 168.449,45.800 169.460 M110.000 169.442 C 100.002 170.646,91.132 177.013,88.047 185.200 C 87.757 185.970,87.374 186.960,87.197 187.400 C 86.169 189.949,85.806 192.663,85.806 197.800 C 85.806 202.937,86.169 205.651,87.197 208.200 C 87.374 208.640,87.746 209.601,88.023 210.336 C 95.377 229.838,127.791 231.240,138.265 212.510 C 141.768 206.247,143.012 195.792,141.086 188.813 C 137.370 175.351,124.991 167.637,110.000 169.442 M118.000 182.140 C 127.656 187.061,126.701 210.111,116.704 213.432 C 108.741 216.077,103.020 209.459,103.020 197.600 C 103.020 184.991,109.822 177.972,118.000 182.140 M56.851 182.576 C 58.749 183.387,60.230 184.900,61.491 187.319 C 62.997 190.209,63.167 202.939,61.740 206.000 C 58.104 213.796,47.481 213.842,43.944 206.077 C 38.044 193.126,46.311 178.074,56.851 182.576 " stroke="none" fill="#e35d2d" fill-rule="evenodd"></path><path id="path3" d="M270.400 257.600 L 270.400 260.000 275.753 260.000 C 282.304 260.000,281.588 258.027,281.595 276.100 L 281.600 290.400 284.400 290.400 L 287.200 290.400 287.205 276.100 C 287.212 258.027,286.496 260.000,293.047 260.000 L 298.400 260.000 298.400 257.600 L 298.400 255.200 284.400 255.200 L 270.400 255.200 270.400 257.600 M352.667 255.467 C 352.520 255.613,352.400 263.533,352.400 273.067 L 352.400 290.400 354.966 290.400 L 357.531 290.400 357.679 281.900 C 357.872 270.723,358.876 268.686,364.191 268.686 C 368.901 268.686,369.600 270.441,369.600 282.273 L 369.600 290.400 372.231 290.400 L 374.862 290.400 374.731 280.500 C 374.604 270.869,374.573 270.546,373.600 268.600 C 371.294 263.989,364.530 263.010,359.819 266.606 C 357.548 268.340,357.600 268.463,357.600 261.333 L 357.600 255.200 355.267 255.200 C 353.983 255.200,352.813 255.320,352.667 255.467 M304.353 264.928 C 292.275 269.447,293.102 288.373,305.484 290.809 C 311.073 291.909,318.187 288.366,319.050 284.052 L 319.300 282.800 316.877 282.800 C 314.815 282.800,314.417 282.918,314.203 283.591 C 312.331 289.488,301.768 287.110,301.478 280.726 L 301.400 279.000 310.757 278.892 L 320.115 278.785 319.883 276.019 C 319.202 267.902,311.365 262.304,304.353 264.928 M331.164 264.994 C 321.692 268.052,320.246 284.360,329.000 289.391 C 333.482 291.966,340.752 291.403,343.459 288.271 C 345.033 286.449,346.000 284.847,346.000 284.062 C 346.000 283.614,346.180 283.136,346.400 283.000 C 347.853 282.102,346.750 281.200,344.200 281.200 C 342.287 281.200,341.600 281.342,341.600 281.739 C 341.600 285.957,334.990 288.455,331.481 285.562 C 327.775 282.508,327.458 273.685,330.929 270.214 C 333.883 267.260,340.522 268.559,341.454 272.274 C 341.829 273.765,346.800 273.691,346.800 272.195 C 346.800 267.111,337.654 262.899,331.164 264.994 M311.672 269.665 C 313.148 270.697,314.400 272.846,314.400 274.347 L 314.400 275.600 308.024 275.600 C 301.056 275.600,300.963 275.567,301.574 273.295 C 302.673 269.216,308.192 267.232,311.672 269.665 " stroke="none" fill="#4e4e4e" fill-rule="evenodd"></path><path id="path4" d="M154.400 145.055 C 145.214 146.810,144.294 159.494,153.113 162.813 C 164.313 167.028,171.760 151.527,161.328 145.714 C 160.361 145.175,155.961 144.757,154.400 145.055 M242.400 145.048 C 233.853 146.631,232.164 158.408,239.930 162.265 C 246.830 165.692,254.156 161.538,254.153 154.200 C 254.150 147.853,248.982 143.829,242.400 145.048 M174.267 145.467 C 174.120 145.613,173.984 161.678,173.965 181.167 C 173.946 200.655,173.797 218.220,173.634 220.200 C 173.194 225.530,172.749 225.238,181.119 225.109 L 188.200 225.000 188.470 222.266 C 188.876 218.166,188.969 218.075,190.699 220.105 C 194.303 224.337,198.812 226.135,205.740 226.102 C 208.623 226.088,210.653 225.907,210.920 225.640 C 211.162 225.398,211.686 225.200,212.084 225.200 C 215.082 225.200,225.167 217.610,225.194 215.333 C 225.197 215.077,225.342 214.807,225.515 214.733 C 226.353 214.378,228.651 208.606,229.628 204.400 C 230.680 199.869,230.071 186.953,228.732 185.420 C 228.549 185.211,228.400 184.804,228.400 184.516 C 228.400 182.864,225.184 177.558,222.615 174.975 C 214.824 167.136,201.306 166.631,193.547 173.888 L 191.600 175.709 191.600 160.935 C 191.600 149.977,191.476 146.036,191.120 145.680 C 190.601 145.161,174.773 144.961,174.267 145.467 M262.054 145.735 C 261.716 146.143,261.623 156.561,261.698 185.643 L 261.800 225.000 268.643 225.109 C 276.691 225.238,276.432 225.369,276.712 221.011 L 276.902 218.050 278.733 220.062 C 287.133 229.293,303.052 228.043,311.601 217.483 C 321.396 205.384,320.071 182.273,309.081 173.534 C 300.603 166.793,287.812 167.268,280.800 174.584 L 279.400 176.045 279.200 160.723 L 279.000 145.400 270.756 145.292 C 264.139 145.205,262.421 145.293,262.054 145.735 M161.116 146.391 C 164.493 148.191,165.696 150.190,165.738 154.071 C 165.841 163.819,151.730 166.423,148.162 157.314 C 145.198 149.747,153.801 142.492,161.116 146.391 M249.116 146.361 C 252.128 147.906,253.759 150.647,253.782 154.200 C 253.848 164.562,238.325 166.120,235.607 156.025 C 233.710 148.980,242.275 142.853,249.116 146.361 M190.705 161.300 C 190.818 177.671,190.780 177.438,192.972 175.076 C 199.067 168.508,211.339 167.451,219.200 172.818 C 234.828 183.487,232.768 214.779,215.886 223.145 C 207.241 227.430,196.451 226.073,191.400 220.066 C 190.740 219.281,189.840 218.270,189.400 217.819 L 188.600 217.000 188.330 218.800 C 188.181 219.790,188.046 221.329,188.030 222.220 C 188.013 223.111,187.784 224.056,187.520 224.320 C 186.825 225.015,174.542 224.996,174.343 224.300 C 174.264 224.025,174.248 206.291,174.308 184.892 L 174.415 145.983 182.508 146.092 L 190.600 146.200 190.705 161.300 M278.800 161.133 C 278.800 177.803,278.751 177.449,280.772 175.268 C 288.193 167.260,303.636 167.489,310.630 175.710 C 312.925 178.408,313.176 178.799,314.725 182.080 C 320.192 193.660,318.121 209.699,310.017 218.547 C 301.613 227.723,285.318 228.060,278.559 219.198 C 276.976 217.121,276.400 216.986,276.400 218.691 C 276.400 219.265,276.202 220.874,275.959 222.267 L 275.518 224.800 268.859 224.800 L 262.200 224.800 262.315 185.900 C 262.379 164.505,262.508 146.775,262.603 146.500 C 262.733 146.122,264.736 146.000,270.787 146.000 L 278.800 146.000 278.800 161.133 M45.823 169.147 C 45.175 169.286,46.875 169.400,49.600 169.400 C 52.325 169.400,54.025 169.286,53.377 169.147 C 52.730 169.008,51.030 168.895,49.600 168.895 C 48.170 168.895,46.470 169.008,45.823 169.147 M109.600 169.153 C 108.830 169.289,110.970 169.400,114.356 169.400 C 117.868 169.400,119.844 169.281,118.956 169.123 C 117.087 168.790,111.551 168.808,109.600 169.153 M344.230 169.197 C 336.703 170.559,331.175 173.874,326.279 179.961 C 315.412 193.474,321.409 217.409,337.300 223.947 C 337.905 224.196,338.805 224.566,339.300 224.770 C 343.469 226.483,358.366 226.473,359.427 224.756 C 359.548 224.560,359.901 224.400,360.212 224.400 C 363.138 224.400,373.600 216.344,373.600 214.090 C 373.600 213.857,373.735 213.607,373.900 213.533 C 374.486 213.273,376.449 208.806,377.122 206.200 C 378.887 199.376,378.851 195.547,376.949 187.400 C 374.088 175.145,358.692 166.580,344.230 169.197 M357.400 170.066 C 359.895 170.732,361.254 171.214,363.200 172.126 C 383.146 181.469,382.634 214.044,362.400 223.054 C 360.697 223.812,359.626 224.153,355.754 225.168 C 353.625 225.727,345.175 225.727,343.046 225.168 C 339.066 224.125,338.030 223.751,335.195 222.333 C 318.243 213.853,316.775 185.082,332.752 174.465 C 339.615 169.905,349.907 168.068,357.400 170.066 M42.400 170.000 C 41.867 170.345,41.867 170.388,42.400 170.388 C 42.730 170.388,43.270 170.213,43.600 170.000 C 44.133 169.655,44.133 169.612,43.600 169.612 C 43.270 169.612,42.730 169.787,42.400 170.000 M105.600 170.000 C 104.796 170.257,104.757 170.323,105.400 170.332 C 105.840 170.338,106.560 170.189,107.000 170.000 C 108.019 169.562,106.968 169.562,105.600 170.000 M121.800 170.000 C 122.240 170.189,122.870 170.344,123.200 170.344 C 123.578 170.344,123.504 170.217,123.000 170.000 C 122.560 169.811,121.930 169.656,121.600 169.656 C 121.222 169.656,121.296 169.783,121.800 170.000 M72.684 170.294 L 79.568 170.419 79.711 173.709 L 79.855 177.000 79.827 173.600 L 79.800 170.200 72.800 170.185 L 65.800 170.170 72.684 170.294 M148.187 170.492 C 148.080 170.771,148.039 183.150,148.096 198.000 L 148.200 225.000 156.600 225.000 L 165.000 225.000 165.000 197.600 L 165.000 170.200 156.691 170.092 C 150.261 170.008,148.337 170.099,148.187 170.492 M236.088 170.472 C 235.369 171.191,235.382 223.549,236.101 224.532 C 236.550 225.147,237.445 225.206,244.801 225.109 L 253.000 225.000 253.000 197.600 L 253.000 170.200 244.788 170.092 C 238.737 170.013,236.447 170.113,236.088 170.472 M39.689 171.065 C 38.968 171.420,38.442 171.775,38.521 171.854 C 38.599 171.933,39.369 171.645,40.232 171.214 C 41.094 170.784,41.620 170.429,41.400 170.425 C 41.180 170.421,40.410 170.709,39.689 171.065 M59.485 171.957 C 60.810 172.813,62.389 174.163,62.994 174.957 C 63.600 175.751,64.270 176.400,64.484 176.400 C 64.697 176.400,64.091 175.578,63.136 174.574 C 61.401 172.749,58.212 170.400,57.469 170.400 C 57.253 170.400,58.160 171.101,59.485 171.957 M64.958 170.966 C 64.838 171.278,64.805 172.043,64.884 172.666 C 65.002 173.591,65.064 173.487,65.225 172.100 C 65.427 170.351,65.338 169.975,64.958 170.966 M164.600 197.600 L 164.600 224.600 156.829 224.709 C 150.880 224.792,148.982 224.698,148.735 224.309 C 148.344 223.692,148.285 171.049,148.675 170.658 C 148.826 170.507,152.471 170.432,156.775 170.492 L 164.600 170.600 164.600 197.600 M252.800 197.392 L 252.800 224.385 251.900 224.606 C 251.405 224.728,247.760 224.776,243.800 224.714 L 236.600 224.600 236.496 198.000 C 236.439 183.370,236.479 171.175,236.584 170.900 C 236.728 170.523,238.746 170.400,244.787 170.400 L 252.800 170.400 252.800 197.392 M126.609 171.513 C 127.247 172.059,129.270 172.837,129.026 172.442 C 128.903 172.242,128.220 171.876,127.510 171.629 C 126.799 171.381,126.394 171.329,126.609 171.513 M35.680 173.496 C 34.568 174.318,33.717 175.051,33.790 175.123 C 33.862 175.195,34.794 174.592,35.861 173.783 C 38.132 172.060,38.201 172.000,37.917 172.000 C 37.798 172.000,36.792 172.673,35.680 173.496 M96.554 174.066 C 94.716 175.446,92.435 177.669,91.080 179.400 C 90.391 180.280,91.171 179.632,92.814 177.960 C 94.456 176.288,96.340 174.539,97.000 174.073 C 97.660 173.607,98.089 173.220,97.954 173.213 C 97.819 173.206,97.189 173.590,96.554 174.066 M134.200 176.800 C 135.506 178.120,136.665 179.200,136.775 179.200 C 136.885 179.200,135.906 178.120,134.600 176.800 C 133.294 175.480,132.135 174.400,132.025 174.400 C 131.915 174.400,132.894 175.480,134.200 176.800 M30.214 179.100 C 29.447 180.145,28.815 181.165,28.810 181.367 C 28.804 181.568,28.856 181.658,28.923 181.567 C 30.283 179.731,31.952 177.200,31.803 177.200 C 31.696 177.200,30.980 178.055,30.214 179.100 M110.800 181.618 C 110.362 181.915,110.524 181.952,111.400 181.756 C 112.871 181.427,113.190 181.198,112.167 181.206 C 111.745 181.209,111.130 181.395,110.800 181.618 M114.833 181.344 C 114.925 181.423,115.540 181.608,116.200 181.756 C 117.076 181.952,117.238 181.915,116.800 181.618 C 116.260 181.253,114.432 180.998,114.833 181.344 M345.200 182.046 C 336.098 187.174,336.128 208.404,345.244 212.947 C 350.077 215.355,356.083 213.337,358.366 208.536 C 362.717 199.391,360.781 186.360,354.477 182.363 C 352.143 180.883,347.543 180.725,345.200 182.046 M353.474 182.436 C 356.318 183.813,357.920 186.132,359.545 191.228 C 360.533 194.328,360.041 203.541,358.751 206.095 C 358.558 206.477,358.400 206.975,358.400 207.203 C 358.400 209.975,353.570 213.347,349.600 213.347 C 342.707 213.347,339.195 208.012,339.204 197.554 C 339.215 185.492,345.667 178.656,353.474 182.436 M49.800 182.400 C 49.508 182.873,49.899 182.873,51.000 182.400 C 51.771 182.069,51.769 182.055,50.924 182.028 C 50.442 182.013,49.936 182.180,49.800 182.400 M107.943 183.300 C 107.179 184.015,106.924 184.313,107.377 183.962 C 107.830 183.612,108.645 183.027,109.189 182.662 C 109.733 182.298,109.988 182.000,109.756 182.000 C 109.523 182.000,108.708 182.585,107.943 183.300 M118.728 182.863 C 119.458 183.331,120.673 184.631,121.428 185.751 C 122.182 186.872,122.800 187.644,122.800 187.467 C 122.800 186.284,118.815 181.985,117.738 182.007 C 117.552 182.010,117.997 182.396,118.728 182.863 M197.398 182.770 C 192.358 185.016,190.998 188.172,191.008 197.600 C 191.018 206.068,191.191 206.728,194.184 209.721 C 201.269 216.806,211.382 211.877,212.890 200.604 C 214.575 188.014,206.498 178.716,197.398 182.770 M284.906 183.042 C 280.215 185.312,278.800 188.643,278.800 197.421 C 278.800 207.980,282.063 212.800,289.212 212.800 C 296.759 212.800,300.891 207.351,300.891 197.400 C 300.891 185.530,293.495 178.887,284.906 183.042 M204.703 183.008 C 206.735 183.612,210.000 186.148,210.000 187.123 C 210.000 187.385,210.180 187.600,210.400 187.600 C 210.620 187.600,210.800 187.930,210.800 188.333 C 210.800 188.737,210.923 189.190,211.074 189.341 C 212.460 190.727,212.938 200.622,211.780 203.948 C 210.449 207.770,208.722 210.057,206.414 211.055 C 205.636 211.392,204.687 211.832,204.305 212.034 C 200.813 213.876,194.058 210.586,192.199 206.136 C 191.128 203.574,191.349 190.556,192.500 188.355 C 195.051 183.479,199.590 181.490,204.703 183.008 M292.705 183.009 C 299.752 185.102,302.946 197.442,298.737 206.317 C 297.523 208.876,294.658 211.568,293.124 211.590 C 292.752 211.596,292.336 211.780,292.200 212.000 C 291.432 213.243,285.662 212.088,283.326 210.224 C 279.968 207.544,279.077 204.548,279.262 196.551 C 279.517 185.532,284.454 180.558,292.705 183.009 M57.239 182.900 C 57.335 182.955,58.211 183.720,59.187 184.600 C 60.163 185.480,60.701 185.846,60.381 185.413 C 59.583 184.331,57.878 182.828,57.433 182.813 C 57.232 182.806,57.144 182.845,57.239 182.900 M46.175 184.900 L 45.000 186.200 46.300 185.025 C 47.015 184.379,47.600 183.794,47.600 183.725 C 47.600 183.416,47.270 183.688,46.175 184.900 M26.440 186.640 C 26.210 187.473,26.094 188.227,26.182 188.315 C 26.270 188.403,26.530 187.793,26.760 186.960 C 26.990 186.127,27.106 185.373,27.018 185.285 C 26.930 185.197,26.670 185.807,26.440 186.640 M79.385 203.800 C 79.385 214.140,79.436 218.427,79.500 213.328 C 79.563 208.228,79.563 199.768,79.500 194.528 C 79.437 189.287,79.385 193.460,79.385 203.800 M105.699 185.700 C 105.102 186.448,103.921 188.855,104.076 189.009 C 104.150 189.083,104.683 188.256,105.262 187.172 C 106.316 185.194,106.443 184.768,105.699 185.700 M44.321 187.300 C 43.388 188.769,42.705 190.722,42.928 191.280 C 43.056 191.599,43.149 191.514,43.168 191.058 C 43.186 190.650,43.643 189.435,44.183 188.358 C 45.218 186.298,45.285 185.780,44.321 187.300 M141.058 188.800 C 141.375 190.525,141.602 190.851,141.594 189.567 C 141.591 189.035,141.411 188.330,141.194 188.000 C 140.918 187.578,140.877 187.815,141.058 188.800 M123.048 189.000 C 123.191 189.660,123.466 190.470,123.659 190.800 C 123.884 191.184,123.918 190.968,123.752 190.200 C 123.609 189.540,123.334 188.730,123.141 188.400 C 122.916 188.016,122.882 188.232,123.048 189.000 M86.229 189.429 C 86.081 190.015,86.038 190.572,86.132 190.666 C 86.227 190.760,86.424 190.358,86.571 189.771 C 86.719 189.185,86.762 188.628,86.668 188.534 C 86.573 188.440,86.376 188.842,86.229 189.429 M103.429 191.029 C 103.281 191.615,103.238 192.172,103.332 192.266 C 103.427 192.360,103.624 191.958,103.771 191.371 C 103.919 190.785,103.962 190.228,103.868 190.134 C 103.773 190.040,103.576 190.442,103.429 191.029 M141.897 195.600 C 142.094 201.652,142.306 202.466,142.314 197.200 C 142.317 194.890,142.191 192.550,142.034 192.000 C 141.876 191.450,141.815 193.070,141.897 195.600 M124.093 192.800 C 124.093 193.570,124.175 193.885,124.276 193.500 C 124.376 193.115,124.376 192.485,124.276 192.100 C 124.175 191.715,124.093 192.030,124.093 192.800 M85.454 193.856 C 85.138 196.161,85.172 200.022,85.530 202.400 C 85.690 203.470,85.800 201.725,85.800 198.100 C 85.800 191.253,85.804 191.304,85.454 193.856 M62.551 196.800 C 62.551 199.330,62.616 200.365,62.696 199.100 C 62.775 197.835,62.775 195.765,62.696 194.500 C 62.616 193.235,62.551 194.270,62.551 196.800 M24.955 197.800 C 24.956 200.660,25.020 201.778,25.097 200.283 C 25.174 198.789,25.174 196.449,25.096 195.083 C 25.018 193.718,24.955 194.940,24.955 197.800 M42.148 197.200 C 42.148 199.510,42.214 200.455,42.295 199.300 C 42.376 198.145,42.376 196.255,42.295 195.100 C 42.214 193.945,42.148 194.890,42.148 197.200 M102.948 197.600 C 102.948 199.910,103.014 200.855,103.095 199.700 C 103.176 198.545,103.176 196.655,103.095 195.500 C 103.014 194.345,102.948 195.290,102.948 197.600 M124.531 197.400 C 124.533 198.940,124.605 199.521,124.692 198.691 C 124.779 197.861,124.777 196.601,124.689 195.891 C 124.600 195.181,124.529 195.860,124.531 197.400 M124.093 202.400 C 124.093 203.170,124.175 203.485,124.276 203.100 C 124.376 202.715,124.376 202.085,124.276 201.700 C 124.175 201.315,124.093 201.630,124.093 202.400 M103.256 203.200 C 103.256 203.530,103.411 204.160,103.600 204.600 C 103.817 205.104,103.944 205.178,103.944 204.800 C 103.944 204.470,103.789 203.840,103.600 203.400 C 103.383 202.896,103.256 202.822,103.256 203.200 M61.829 204.629 C 61.681 205.215,61.638 205.772,61.732 205.866 C 61.827 205.960,62.024 205.558,62.171 204.971 C 62.319 204.385,62.362 203.828,62.268 203.734 C 62.173 203.640,61.976 204.042,61.829 204.629 M123.350 205.100 C 122.975 206.657,121.379 209.753,120.631 210.374 C 120.284 210.662,120.000 211.070,120.000 211.280 C 120.000 211.896,121.822 209.539,122.689 207.800 C 123.527 206.119,124.155 204.000,123.815 204.000 C 123.705 204.000,123.496 204.495,123.350 205.100 M141.246 204.867 C 141.221 205.234,141.096 205.864,140.970 206.267 C 140.752 206.962,140.763 206.963,141.197 206.287 C 141.448 205.896,141.573 205.266,141.473 204.887 C 141.311 204.268,141.288 204.266,141.246 204.867 M25.606 205.633 C 25.609 206.165,25.789 206.870,26.006 207.200 C 26.282 207.622,26.323 207.385,26.142 206.400 C 25.825 204.675,25.598 204.349,25.606 205.633 M86.056 205.200 C 86.056 205.530,86.211 206.160,86.400 206.600 C 86.617 207.104,86.744 207.178,86.744 206.800 C 86.744 206.470,86.589 205.840,86.400 205.400 C 86.183 204.896,86.056 204.822,86.056 205.200 M104.000 206.153 C 104.000 206.582,105.190 208.800,105.421 208.800 C 105.531 208.800,105.323 208.215,104.959 207.500 C 104.217 206.040,104.000 205.736,104.000 206.153 M60.300 207.779 C 59.695 208.537,59.200 209.282,59.200 209.434 C 59.200 209.586,59.740 209.031,60.400 208.200 C 61.511 206.802,61.757 206.400,61.500 206.400 C 61.445 206.400,60.905 207.020,60.300 207.779 M44.400 207.060 C 44.400 207.534,47.790 210.800,48.282 210.800 C 48.447 210.800,47.914 210.249,47.097 209.575 C 46.279 208.902,45.338 207.962,45.005 207.486 C 44.672 207.011,44.400 206.819,44.400 207.060 M139.078 211.005 C 138.712 211.772,138.495 212.400,138.596 212.400 C 138.870 212.400,140.084 209.951,139.901 209.768 C 139.814 209.681,139.444 210.238,139.078 211.005 M87.600 210.153 C 87.600 210.582,88.790 212.800,89.021 212.800 C 89.131 212.800,88.923 212.215,88.559 211.500 C 87.817 210.040,87.600 209.736,87.600 210.153 M106.400 210.597 C 106.400 210.927,109.689 213.200,110.160 213.196 C 110.402 213.194,109.835 212.734,108.900 212.174 C 107.965 211.613,107.200 210.985,107.200 210.777 C 107.200 210.570,107.020 210.400,106.800 210.400 C 106.580 210.400,106.400 210.489,106.400 210.597 M52.105 211.887 C 52.714 211.979,53.614 211.977,54.105 211.882 C 54.597 211.787,54.100 211.711,53.000 211.714 C 51.900 211.717,51.497 211.795,52.105 211.887 M118.200 212.427 C 117.540 212.850,117.205 213.197,117.456 213.198 C 117.706 213.199,118.336 212.846,118.856 212.413 C 120.045 211.423,119.759 211.429,118.200 212.427 M28.000 212.133 C 28.000 213.937,36.559 222.774,37.446 221.887 C 37.551 221.783,36.863 221.240,35.918 220.681 C 33.815 219.436,31.381 216.923,29.451 214.005 C 28.653 212.798,28.000 211.956,28.000 212.133 M137.093 214.403 C 136.518 215.281,136.117 216.000,136.203 216.000 C 136.513 216.000,138.507 213.174,138.325 212.992 C 138.223 212.889,137.668 213.524,137.093 214.403 M89.877 214.446 C 91.401 217.073,98.383 223.350,99.045 222.688 C 99.149 222.584,98.585 222.116,97.791 221.648 C 95.348 220.207,92.856 217.919,91.099 215.506 C 89.236 212.949,88.779 212.551,89.877 214.446 M111.515 213.672 C 111.892 213.821,112.920 213.944,113.800 213.944 C 114.680 213.944,115.708 213.821,116.085 213.672 C 116.462 213.522,115.434 213.400,113.800 213.400 C 112.166 213.400,111.138 213.522,111.515 213.672 M134.181 218.100 L 132.600 219.800 134.300 218.219 C 135.881 216.748,136.184 216.400,135.881 216.400 C 135.816 216.400,135.051 217.165,134.181 218.100 M62.537 221.000 C 62.539 222.760,62.609 223.430,62.693 222.489 C 62.778 221.549,62.777 220.109,62.691 219.289 C 62.605 218.470,62.536 219.240,62.537 221.000 M130.032 221.234 C 128.839 222.095,127.997 222.800,128.160 222.800 C 128.564 222.800,131.900 220.486,132.203 219.995 C 132.551 219.431,132.441 219.495,130.032 221.234 M78.909 224.800 C 78.909 225.790,78.987 226.195,79.082 225.700 C 79.178 225.205,79.178 224.395,79.082 223.900 C 78.987 223.405,78.909 223.810,78.909 224.800 M42.846 224.037 C 43.151 224.230,44.210 224.376,45.200 224.362 C 47.333 224.332,46.955 224.140,44.246 223.876 C 43.042 223.759,42.505 223.821,42.846 224.037 M50.800 224.000 L 49.000 224.280 50.600 224.334 C 51.480 224.363,52.470 224.213,52.800 224.000 C 53.130 223.787,53.220 223.637,53.000 223.666 C 52.780 223.696,51.790 223.846,50.800 224.000 M122.000 224.800 C 121.176 225.064,121.141 225.126,121.800 225.154 C 122.240 225.173,122.870 225.013,123.200 224.800 C 123.901 224.347,123.414 224.347,122.000 224.800 M107.000 225.615 C 107.774 225.933,111.904 226.149,111.567 225.854 C 111.475 225.774,110.230 225.613,108.800 225.498 C 107.273 225.374,106.530 225.422,107.000 225.615 M117.600 225.600 L 115.400 225.870 117.400 225.907 C 118.500 225.927,119.760 225.789,120.200 225.600 C 121.102 225.212,120.762 225.212,117.600 225.600 M78.049 228.744 C 77.820 229.813,77.252 231.658,76.788 232.844 C 76.323 234.030,76.113 234.820,76.322 234.600 C 77.153 233.723,79.221 226.800,78.651 226.800 C 78.550 226.800,78.279 227.675,78.049 228.744 M60.808 228.579 C 60.603 229.118,59.777 230.333,58.972 231.279 C 57.596 232.897,57.615 232.887,59.302 231.118 C 60.290 230.083,61.194 228.868,61.311 228.418 C 61.609 227.280,61.259 227.392,60.808 228.579 M32.200 232.800 C 32.050 233.273,32.017 233.750,32.127 233.860 C 32.237 233.970,32.450 233.673,32.600 233.200 C 32.750 232.727,32.783 232.250,32.673 232.140 C 32.563 232.030,32.350 232.327,32.200 232.800 M43.400 234.790 C 44.164 235.128,46.714 235.357,46.367 235.056 C 46.275 234.976,45.390 234.804,44.400 234.673 C 43.198 234.514,42.866 234.553,43.400 234.790 M51.200 234.800 C 49.833 235.088,49.828 235.095,51.000 235.119 C 51.660 235.133,52.560 234.989,53.000 234.800 C 53.962 234.387,53.164 234.387,51.200 234.800 M75.003 236.512 C 74.588 237.221,73.248 238.862,72.024 240.161 C 70.801 241.460,70.267 242.223,70.837 241.857 C 72.234 240.959,76.310 235.777,75.923 235.389 C 75.832 235.299,75.418 235.804,75.003 236.512 M29.849 241.815 C 29.712 242.173,29.621 242.946,29.646 243.533 C 29.680 244.332,29.770 244.198,30.004 243.000 C 30.335 241.300,30.262 240.740,29.849 241.815 M65.600 244.800 C 64.830 245.222,64.344 245.574,64.520 245.583 C 64.944 245.605,67.200 244.432,67.200 244.190 C 67.200 243.928,67.177 243.937,65.600 244.800 M31.200 244.966 C 31.750 245.260,32.650 245.612,33.200 245.749 C 33.750 245.886,33.480 245.652,32.600 245.229 C 30.790 244.358,29.668 244.148,31.200 244.966 M34.433 246.144 C 34.525 246.223,35.140 246.408,35.800 246.556 C 36.676 246.752,36.838 246.715,36.400 246.418 C 35.860 246.053,34.032 245.798,34.433 246.144 M38.400 247.200 C 38.950 247.376,39.760 247.520,40.200 247.520 C 40.833 247.520,40.792 247.454,40.000 247.200 C 39.450 247.024,38.640 246.880,38.200 246.880 C 37.567 246.880,37.608 246.946,38.400 247.200 M58.200 247.200 C 57.181 247.638,58.232 247.638,59.600 247.200 C 60.404 246.943,60.443 246.877,59.800 246.868 C 59.360 246.862,58.640 247.011,58.200 247.200 M42.900 247.887 C 43.505 247.978,44.495 247.978,45.100 247.887 C 45.705 247.795,45.210 247.720,44.000 247.720 C 42.790 247.720,42.295 247.795,42.900 247.887 M54.105 247.887 C 54.714 247.979,55.614 247.977,56.105 247.882 C 56.597 247.787,56.100 247.711,55.000 247.714 C 53.900 247.717,53.497 247.795,54.105 247.887 M47.900 248.293 C 48.835 248.377,50.365 248.377,51.300 248.293 C 52.235 248.209,51.470 248.140,49.600 248.140 C 47.730 248.140,46.965 248.209,47.900 248.293 M270.100 254.665 C 269.768 254.799,269.600 255.794,269.600 257.633 L 269.600 260.400 274.920 260.400 C 278.524 260.400,280.395 260.555,280.720 260.880 C 281.093 261.253,281.200 261.209,281.200 260.680 C 281.200 260.074,280.616 260.000,275.800 260.000 L 270.400 260.000 270.400 257.600 L 270.400 255.200 284.400 255.200 L 298.400 255.200 298.400 257.600 L 298.400 260.000 293.000 260.000 C 290.030 260.000,287.600 260.135,287.599 260.300 C 287.599 260.465,290.209 260.546,293.399 260.479 L 299.200 260.359 299.200 257.622 C 299.200 255.496,299.059 254.831,298.567 254.643 C 297.812 254.353,270.821 254.374,270.100 254.665 M352.283 254.650 C 352.127 254.806,352.000 263.003,352.000 272.867 L 352.000 290.800 355.000 290.800 L 358.000 290.800 358.000 283.512 C 358.000 276.662,358.523 272.000,359.291 272.000 C 359.461 272.000,359.600 271.795,359.600 271.544 C 359.600 270.980,360.620 270.137,362.200 269.395 C 363.248 268.903,363.288 268.829,362.514 268.816 C 359.009 268.754,357.600 272.784,357.600 282.873 L 357.600 290.400 355.000 290.400 L 352.400 290.400 352.400 272.800 L 352.400 255.200 355.000 255.200 L 357.600 255.200 357.600 260.967 C 357.600 268.305,357.598 268.301,359.815 266.610 C 364.623 262.940,371.547 263.993,373.734 268.727 C 374.535 270.459,374.609 271.343,374.725 280.500 L 374.851 290.400 372.225 290.400 L 369.600 290.400 369.600 282.377 C 369.600 272.006,368.721 268.768,365.919 268.816 C 365.120 268.829,365.166 268.903,366.269 269.383 C 368.453 270.333,368.582 270.932,368.800 281.200 L 369.000 290.600 372.100 290.717 L 375.200 290.834 375.200 280.963 C 375.200 271.564,374.853 268.000,373.937 268.000 C 373.752 268.000,373.600 267.812,373.600 267.583 C 373.600 263.974,362.782 262.705,359.830 265.967 C 358.230 267.735,358.028 267.180,357.910 260.700 L 357.800 254.600 355.183 254.484 C 353.744 254.420,352.439 254.495,352.283 254.650 M287.200 275.783 L 287.200 290.366 284.100 290.503 L 281.000 290.639 284.300 290.720 L 287.600 290.800 287.600 276.000 C 287.600 267.860,287.510 261.200,287.400 261.200 C 287.290 261.200,287.200 267.762,287.200 275.783 M302.800 264.911 C 299.511 266.502,297.061 269.629,295.656 274.028 C 295.094 275.790,295.054 281.062,295.600 281.400 C 295.820 281.536,296.000 282.081,296.000 282.611 C 296.000 284.701,299.401 289.132,301.800 290.169 C 304.782 291.458,305.398 291.600,308.000 291.600 C 310.747 291.600,311.517 291.405,314.629 289.923 C 316.394 289.082,319.226 285.829,319.686 284.114 C 320.104 282.553,319.412 281.999,317.051 282.006 C 314.745 282.013,314.472 282.143,313.469 283.719 C 310.448 288.464,302.518 286.596,301.927 281.000 L 301.800 279.800 311.000 279.600 L 320.200 279.400 320.327 277.000 C 320.594 271.949,316.096 264.800,312.652 264.800 C 312.319 264.800,311.936 264.620,311.800 264.400 C 311.303 263.596,304.749 263.968,302.800 264.911 M330.997 264.548 C 326.449 266.258,323.797 269.713,322.761 275.276 C 322.256 277.988,322.820 283.318,323.668 283.842 C 323.850 283.955,324.000 284.393,324.000 284.815 C 324.000 285.713,328.141 290.000,329.009 290.000 C 329.334 290.000,329.600 290.180,329.600 290.400 C 329.600 290.620,330.039 290.800,330.576 290.800 C 331.113 290.800,331.664 290.980,331.800 291.200 C 332.151 291.768,337.926 291.685,339.600 291.089 C 343.007 289.875,345.725 287.099,346.771 283.766 C 347.645 280.982,347.379 280.617,344.373 280.483 L 341.753 280.367 340.777 282.472 C 338.783 286.770,334.640 287.719,331.265 284.650 C 327.647 281.360,328.606 271.930,332.784 269.721 C 333.742 269.215,334.216 268.800,333.837 268.800 C 328.246 268.800,326.471 281.433,331.481 285.562 C 334.928 288.404,341.600 285.926,341.600 281.805 C 341.600 281.327,342.145 281.200,344.200 281.200 C 347.048 281.200,347.111 281.273,346.294 283.618 C 343.402 291.914,332.252 293.847,326.188 287.102 C 325.205 286.008,324.400 284.861,324.400 284.551 C 324.400 284.242,324.228 283.677,324.018 283.295 C 322.691 280.879,322.899 275.199,324.458 271.293 C 327.921 262.615,341.964 261.970,346.281 270.290 C 347.488 272.617,347.071 273.200,344.200 273.200 C 342.459 273.200,341.600 273.043,341.600 272.725 C 341.600 271.912,339.861 269.665,338.889 269.222 C 337.432 268.558,336.868 268.761,338.187 269.474 C 339.742 270.316,340.135 270.738,340.825 272.314 L 341.400 273.627 344.400 273.514 L 347.400 273.400 347.289 272.200 C 346.747 266.339,337.626 262.055,330.997 264.548 M312.294 265.133 C 316.608 266.885,319.460 270.980,319.884 276.027 L 320.116 278.800 311.158 278.806 C 301.090 278.813,301.000 278.834,301.380 281.084 C 302.415 287.208,310.966 289.192,313.923 283.994 C 315.118 281.894,319.970 282.242,319.067 284.363 C 315.464 292.823,301.754 293.347,297.546 285.186 C 291.707 273.862,301.387 260.702,312.294 265.133 M303.605 270.243 C 302.051 271.647,300.863 274.331,301.406 275.209 C 301.547 275.437,304.305 275.600,308.024 275.600 L 314.400 275.600 314.400 274.584 C 314.400 272.113,311.602 268.789,309.538 268.809 C 308.805 268.816,308.966 268.984,310.276 269.578 C 311.339 270.061,312.326 270.932,312.976 271.962 C 314.773 274.808,314.787 274.800,307.828 274.800 L 301.656 274.800 301.985 273.651 C 302.669 271.268,303.849 270.147,306.800 269.080 C 307.135 268.959,306.915 268.849,306.301 268.832 C 305.572 268.811,304.665 269.285,303.605 270.243 " stroke="none" fill="#a8b6ca" fill-rule="evenodd"></path></g></svg>